<svg width="726" height="726" viewBox="0 0 726 726" fill="none" xmlns="http://www.w3.org/2000/svg">
<rect width="726" height="726" fill="#2F2623"/>
<mask id="path-1-inside-1_254_176" fill="white">
<path fill-rule="evenodd" clip-rule="evenodd" d="M191.062 314.029C184.758 303.251 171.446 296.229 156.471 297.072C136.241 298.21 120.637 313.27 121.619 330.71C122.081 338.914 126.131 346.184 132.399 351.464C117.161 356.042 106.515 368.895 107.331 383.393C107.848 392.582 112.867 400.599 120.46 405.96C113.144 412.177 108.798 420.935 109.331 430.393C110.049 443.146 119.437 453.64 132.343 457.913C126.319 463.948 122.852 471.887 123.331 480.393C123.877 490.093 129.439 498.485 137.749 503.828C133.346 509.404 130.926 516.196 131.331 523.393C131.744 530.736 135.032 537.33 140.212 542.419C138.104 546.712 137.053 551.457 137.331 556.393C138.239 572.537 153.044 585.061 171.287 585.928C171.289 586.414 171.303 586.902 171.331 587.393C172.312 604.832 189.508 618.046 209.738 616.907C215.816 616.565 221.476 614.967 226.395 612.424C231.665 625.162 246.185 633.839 262.738 632.907C274.259 632.259 284.279 627.095 290.591 619.548C297.687 625.899 307.878 629.599 318.984 628.974C330.235 628.341 340.055 623.402 346.387 616.142C353.204 625.414 365.528 631.244 379.248 630.472C391.493 629.783 402.043 623.993 408.246 615.663C414.686 626.103 427.781 632.851 442.478 632.024C459.425 631.07 473.125 620.347 476.549 606.641C481.5 608.398 486.997 609.231 492.738 608.907C502.892 608.336 511.881 604.257 518.192 598.13C523.487 600.234 529.466 601.26 535.738 600.907C555.968 599.769 571.572 584.709 570.59 567.27C570.414 564.144 569.718 561.155 568.576 558.359C586.397 555.303 599.492 541.29 598.59 525.27C598.17 517.808 594.782 511.12 589.458 505.998C604.803 501.474 615.546 488.571 614.727 474.01C614.257 465.666 610.076 458.289 603.626 452.989C609.441 446.999 612.768 439.199 612.298 430.855C611.68 419.872 604.631 410.565 594.443 405.463C603.994 399.251 609.955 389.211 609.336 378.228C608.718 367.245 601.669 357.938 591.481 352.836C601.032 346.624 606.992 336.584 606.374 325.601C605.393 308.162 588.198 294.948 567.968 296.086C553.342 296.909 541.135 305.008 535.864 316.022L191.062 314.029Z"/>
</mask>
<path fill-rule="evenodd" clip-rule="evenodd" d="M191.062 314.029C184.758 303.251 171.446 296.229 156.471 297.072C136.241 298.21 120.637 313.27 121.619 330.71C122.081 338.914 126.131 346.184 132.399 351.464C117.161 356.042 106.515 368.895 107.331 383.393C107.848 392.582 112.867 400.599 120.46 405.96C113.144 412.177 108.798 420.935 109.331 430.393C110.049 443.146 119.437 453.64 132.343 457.913C126.319 463.948 122.852 471.887 123.331 480.393C123.877 490.093 129.439 498.485 137.749 503.828C133.346 509.404 130.926 516.196 131.331 523.393C131.744 530.736 135.032 537.33 140.212 542.419C138.104 546.712 137.053 551.457 137.331 556.393C138.239 572.537 153.044 585.061 171.287 585.928C171.289 586.414 171.303 586.902 171.331 587.393C172.312 604.832 189.508 618.046 209.738 616.907C215.816 616.565 221.476 614.967 226.395 612.424C231.665 625.162 246.185 633.839 262.738 632.907C274.259 632.259 284.279 627.095 290.591 619.548C297.687 625.899 307.878 629.599 318.984 628.974C330.235 628.341 340.055 623.402 346.387 616.142C353.204 625.414 365.528 631.244 379.248 630.472C391.493 629.783 402.043 623.993 408.246 615.663C414.686 626.103 427.781 632.851 442.478 632.024C459.425 631.07 473.125 620.347 476.549 606.641C481.5 608.398 486.997 609.231 492.738 608.907C502.892 608.336 511.881 604.257 518.192 598.13C523.487 600.234 529.466 601.26 535.738 600.907C555.968 599.769 571.572 584.709 570.59 567.27C570.414 564.144 569.718 561.155 568.576 558.359C586.397 555.303 599.492 541.29 598.59 525.27C598.17 517.808 594.782 511.12 589.458 505.998C604.803 501.474 615.546 488.571 614.727 474.01C614.257 465.666 610.076 458.289 603.626 452.989C609.441 446.999 612.768 439.199 612.298 430.855C611.68 419.872 604.631 410.565 594.443 405.463C603.994 399.251 609.955 389.211 609.336 378.228C608.718 367.245 601.669 357.938 591.481 352.836C601.032 346.624 606.992 336.584 606.374 325.601C605.393 308.162 588.198 294.948 567.968 296.086C553.342 296.909 541.135 305.008 535.864 316.022L191.062 314.029Z" fill="white"/>
<path d="M191.062 314.029L186.746 316.553L188.184 319.012L191.033 319.029L191.062 314.029ZM132.399 351.464L133.837 356.252L142.688 353.594L135.62 347.64L132.399 351.464ZM120.46 405.96L123.698 409.77L128.612 405.595L123.344 401.875L120.46 405.96ZM132.343 457.913L135.882 461.446L141.605 455.713L133.915 453.166L132.343 457.913ZM137.749 503.828L141.673 506.928L145.089 502.603L140.453 499.623L137.749 503.828ZM140.212 542.419L144.7 544.623L146.291 541.383L143.716 538.853L140.212 542.419ZM171.287 585.928L176.287 585.911L176.271 581.159L171.525 580.934L171.287 585.928ZM209.738 616.907L210.019 621.9L209.738 616.907ZM226.395 612.424L231.015 610.513L228.934 605.483L224.099 607.983L226.395 612.424ZM290.591 619.548L293.925 615.822L290.072 612.374L286.755 616.341L290.591 619.548ZM346.387 616.142L350.415 613.181L346.719 608.154L342.619 612.856L346.387 616.142ZM408.246 615.663L412.501 613.038L408.635 606.77L404.236 612.677L408.246 615.663ZM476.549 606.641L478.221 601.929L473.033 600.087L471.698 605.429L476.549 606.641ZM518.192 598.13L520.038 593.484L517.03 592.289L514.709 594.543L518.192 598.13ZM568.576 558.359L567.731 553.431L561.593 554.484L563.947 560.249L568.576 558.359ZM589.458 505.998L588.044 501.203L579.79 503.636L585.992 509.602L589.458 505.998ZM614.727 474.01L619.719 473.729L614.727 474.01ZM603.626 452.989L600.038 449.507L596.256 453.404L600.452 456.852L603.626 452.989ZM594.443 405.463L591.716 401.272L584.404 406.028L592.204 409.934L594.443 405.463ZM591.481 352.836L588.754 348.645L581.442 353.401L589.242 357.307L591.481 352.836ZM606.374 325.601L601.382 325.882L606.374 325.601ZM535.864 316.022L535.835 321.022L539.006 321.041L540.374 318.181L535.864 316.022ZM195.378 311.505C188.017 298.918 172.811 291.144 156.19 292.08L156.752 302.064C170.081 301.314 181.5 307.583 186.746 316.553L195.378 311.505ZM156.19 292.08C133.925 293.333 115.452 310.125 116.627 330.99L126.611 330.429C125.822 316.416 138.558 303.088 156.752 302.064L156.19 292.08ZM116.627 330.99C117.175 340.734 121.99 349.233 129.177 355.288L135.62 347.64C130.273 343.135 126.986 337.095 126.611 330.429L116.627 330.99ZM130.96 346.675C114.031 351.761 101.365 366.364 102.339 383.674L112.323 383.112C111.665 371.426 120.292 360.322 133.837 356.252L130.96 346.675ZM102.339 383.674C102.953 394.597 108.921 403.933 117.577 410.044L123.344 401.875C116.814 397.264 112.742 390.567 112.323 383.112L102.339 383.674ZM117.223 402.15C108.896 409.226 103.706 419.428 104.339 430.674L114.323 430.112C113.891 422.442 117.393 415.128 123.698 409.77L117.223 402.15ZM104.339 430.674C105.195 445.881 116.332 457.878 130.772 462.66L133.915 453.166C122.543 449.401 114.903 440.411 114.323 430.112L104.339 430.674ZM128.805 454.38C121.909 461.288 117.77 470.57 118.339 480.674L128.323 480.112C127.934 473.204 130.729 466.607 135.882 461.446L128.805 454.38ZM118.339 480.674C118.988 492.21 125.601 501.962 135.045 508.034L140.453 499.623C133.278 495.009 128.766 487.976 128.323 480.112L118.339 480.674ZM133.826 500.729C128.744 507.163 125.858 515.136 126.339 523.674L136.323 523.112C135.993 517.255 137.948 511.644 141.673 506.928L133.826 500.729ZM126.339 523.674C126.829 532.386 130.736 540.118 136.707 545.986L143.716 538.853C139.329 534.542 136.659 529.086 136.323 523.112L126.339 523.674ZM135.724 540.215C133.258 545.236 132.01 550.833 132.339 556.674L142.323 556.112C142.096 552.081 142.949 548.188 144.7 544.623L135.724 540.215ZM132.339 556.674C133.425 575.972 150.893 589.964 171.05 590.922L171.525 580.934C155.194 580.157 143.054 569.102 142.323 556.112L132.339 556.674ZM166.287 585.945C166.289 586.519 166.306 587.095 166.339 587.674L176.323 587.112C176.3 586.709 176.289 586.309 176.287 585.911L166.287 585.945ZM166.339 587.674C167.513 608.54 187.753 623.153 210.019 621.9L209.457 611.915C191.263 612.939 177.112 601.124 176.323 587.112L166.339 587.674ZM210.019 621.9C216.796 621.518 223.143 619.733 228.691 616.866L224.099 607.983C219.809 610.2 214.836 611.613 209.457 611.915L210.019 621.9ZM221.774 614.336C227.981 629.336 244.685 638.931 263.019 637.9L262.457 627.915C247.686 628.747 235.349 620.988 231.015 610.513L221.774 614.336ZM263.019 637.9C275.844 637.178 287.18 631.421 294.426 622.756L286.755 616.341C281.379 622.77 272.674 627.34 262.457 627.915L263.019 637.9ZM287.256 623.274C295.39 630.553 306.899 634.662 319.265 633.966L318.703 623.982C308.857 624.536 299.984 621.245 293.925 615.822L287.256 623.274ZM319.265 633.966C331.791 633.261 342.893 627.754 350.155 619.429L342.619 612.856C337.216 619.049 328.678 623.421 318.703 623.982L319.265 633.966ZM342.358 619.104C350.267 629.861 364.281 636.322 379.529 635.464L378.967 625.48C366.775 626.166 356.14 620.967 350.415 613.181L342.358 619.104ZM379.529 635.464C393.154 634.697 405.111 628.245 412.256 618.65L404.236 612.677C398.975 619.742 389.832 624.868 378.967 625.48L379.529 635.464ZM403.991 618.288C411.501 630.462 426.442 637.934 442.759 637.016L442.197 627.032C429.121 627.768 417.872 621.744 412.501 613.038L403.991 618.288ZM442.759 637.016C461.519 635.96 477.36 624.026 481.4 607.852L471.698 605.429C468.89 616.669 457.33 626.18 442.197 627.032L442.759 637.016ZM474.877 611.353C480.456 613.333 486.617 614.26 493.019 613.9L492.457 603.915C487.376 604.201 482.544 603.463 478.221 601.929L474.877 611.353ZM493.019 613.9C504.33 613.263 514.469 608.713 521.674 601.718L514.709 594.543C509.293 599.801 501.454 603.409 492.457 603.915L493.019 613.9ZM516.345 602.777C522.321 605.151 529.026 606.293 536.019 605.9L535.457 595.915C529.906 596.228 524.653 595.317 520.038 593.484L516.345 602.777ZM536.019 605.9C558.284 604.646 576.757 587.855 575.582 566.989L565.598 567.551C566.387 581.563 553.651 594.891 535.457 595.915L536.019 605.9ZM575.582 566.989C575.374 563.297 574.551 559.765 573.205 556.469L563.947 560.249C564.885 562.545 565.454 564.992 565.598 567.551L575.582 566.989ZM569.421 563.287C589.118 559.909 604.66 544.137 603.582 524.989L593.598 525.551C594.324 538.443 583.675 550.697 567.731 553.431L569.421 563.287ZM603.582 524.989C603.084 516.135 599.058 508.295 592.924 502.395L585.992 509.602C590.506 513.944 593.256 519.481 593.598 525.551L603.582 524.989ZM590.872 510.794C607.916 505.768 620.697 491.115 619.719 473.729L609.735 474.291C610.395 486.027 601.689 497.179 588.044 501.203L590.872 510.794ZM619.719 473.729C619.161 463.819 614.191 455.199 606.801 449.126L600.452 456.852C605.961 461.379 609.353 467.513 609.735 474.291L619.719 473.729ZM607.214 456.471C613.876 449.607 617.848 440.484 617.29 430.574L607.306 431.136C607.687 437.914 605.005 444.39 600.038 449.507L607.214 456.471ZM617.29 430.574C616.554 417.497 608.178 406.75 596.681 400.993L592.204 409.934C601.083 414.38 606.806 422.247 607.306 431.136L617.29 430.574ZM597.169 409.655C607.947 402.644 615.065 391.025 614.329 377.947L604.344 378.509C604.845 387.398 600.041 395.858 591.716 401.272L597.169 409.655ZM614.329 377.947C613.593 364.87 605.217 354.122 593.719 348.365L589.242 357.307C598.121 361.753 603.844 369.62 604.344 378.509L614.329 377.947ZM594.207 357.027C604.985 350.017 612.102 338.397 611.366 325.32L601.382 325.882C601.883 334.771 597.079 343.23 588.754 348.645L594.207 357.027ZM611.366 325.32C610.192 304.454 589.952 289.841 567.687 291.094L568.248 301.078C586.443 300.054 600.594 311.87 601.382 325.882L611.366 325.32ZM567.687 291.094C551.448 292.008 537.498 301.026 531.354 313.864L540.374 318.181C544.772 308.991 555.237 301.81 568.248 301.078L567.687 291.094ZM191.033 319.029L535.835 321.022L535.893 311.022L191.091 309.029L191.033 319.029Z" fill="#D9D9D9" mask="url(#path-1-inside-1_254_176)"/>
<path d="M106.961 189.899C104.671 152.673 136.484 121.621 173.481 124.97L559.79 159.935C588.681 162.55 611.052 185.654 612.84 214.724L616.87 280.255C618.905 313.329 593.787 342.411 560.768 345.212L178.604 377.623C145.585 380.423 117.169 355.881 115.135 322.806L106.961 189.899Z" fill="#DE7F49"/>
<path d="M107.048 191.332C104.784 154.519 135.902 123.635 172.554 126.319L548.416 153.841C577.743 155.988 600.67 179.257 602.482 208.713L605.19 252.742C607.224 285.817 582.106 314.899 549.088 317.699L176.86 349.268C143.841 352.068 115.425 327.526 113.391 294.451L107.048 191.332Z" fill="url(#paint0_linear_254_176)"/>
<path d="M133.031 239.471L159.839 224.214L195.993 376.052L182.053 377.693L171.553 377.693L133.031 239.471Z" fill="url(#paint1_linear_254_176)"/>
<path d="M210.054 127.052L226.833 129.62L155.396 262.494L132.974 240.152L195.993 127.052L210.054 127.052Z" fill="url(#paint2_linear_254_176)"/>
<path d="M251.97 239.661L278.7 225.331L319.278 366.606L288.902 369.183L251.97 239.661Z" fill="url(#paint3_linear_254_176)"/>
<path d="M324.623 136.799L345.276 138.757L274.43 261.559L251.916 240.306L311.395 135.722L324.623 136.799Z" fill="url(#paint4_linear_254_176)"/>
<path d="M367.48 239.97L394.105 226.88L435.069 355.768L404.168 358.389L367.48 239.97Z" fill="url(#paint5_linear_254_176)"/>
<path d="M439.553 145.693L458.553 147.193L390.067 260.362L367.43 240.566L424.553 144.693L439.553 145.693Z" fill="url(#paint6_linear_254_176)"/>
<path d="M485.84 236.899L513.693 225.225L556.878 344.294L528.294 347.911L485.84 236.899Z" fill="url(#paint7_linear_254_176)"/>
<path d="M558.313 153.64L568.252 158.499L580.053 165.193L511.095 254.759L487.053 236.39L541.313 151.64L558.313 153.64Z" fill="url(#paint8_linear_254_176)"/>
<path fill-rule="evenodd" clip-rule="evenodd" d="M428.931 449.183C426.26 449.183 423.961 447.21 423.905 444.54C423.899 444.258 423.896 443.976 423.896 443.693C423.896 421.602 441.805 403.693 463.896 403.693C485.988 403.693 503.896 421.602 503.896 443.693C503.896 443.976 503.894 444.258 503.888 444.54C503.832 447.21 501.533 449.183 498.862 449.183H497.92C495.054 449.183 492.916 446.559 492.916 443.693V443.693C492.916 427.666 479.923 414.674 463.896 414.674C447.869 414.674 434.877 427.666 434.877 443.693V443.693C434.877 446.559 432.738 449.183 429.872 449.183H428.931Z" fill="#342E2B"/>
<path fill-rule="evenodd" clip-rule="evenodd" d="M409.871 494.693C413.963 494.693 417.554 497.721 417.554 501.814V501.814C417.554 530.466 389.124 553.693 354.054 553.693C318.984 553.693 290.554 530.466 290.554 501.814V501.814C290.554 497.721 294.144 494.693 298.237 494.693L301.624 494.693C305.294 494.693 307.985 498.144 307.985 501.814V501.814C307.985 522.601 328.61 539.452 354.053 539.452C379.496 539.452 400.122 522.601 400.122 501.814V501.814C400.122 498.144 402.812 494.693 406.483 494.693L409.871 494.693Z" fill="#342E2B"/>
<path fill-rule="evenodd" clip-rule="evenodd" d="M215.588 449.183C212.917 449.183 210.618 447.21 210.562 444.54C210.557 444.258 210.554 443.976 210.554 443.693C210.554 421.602 228.462 403.693 250.554 403.693C272.645 403.693 290.554 421.602 290.554 443.693C290.554 443.976 290.551 444.258 290.545 444.54C290.49 447.21 288.19 449.183 285.519 449.183H284.577C281.712 449.183 279.573 446.559 279.573 443.693V443.693C279.573 427.666 266.581 414.674 250.554 414.674C234.526 414.674 221.534 427.666 221.534 443.693V443.693C221.534 446.559 219.396 449.183 216.53 449.183H215.588Z" fill="#342E2B"/>
<circle cx="227.554" cy="500.693" r="24" fill="#FAB7B7"/>
<circle cx="479.554" cy="494.693" r="24" fill="#FAB7B7"/>
<defs>
<linearGradient id="paint0_linear_254_176" x1="348.635" y1="100.352" x2="368.368" y2="333.026" gradientUnits="userSpaceOnUse">
<stop offset="0.364583" stop-color="#DA580F"/>
<stop offset="1" stop-color="#FFA979"/>
</linearGradient>
<linearGradient id="paint1_linear_254_176" x1="184.864" y1="126.139" x2="164.118" y2="378.865" gradientUnits="userSpaceOnUse">
<stop offset="0.786458" stop-color="#FFE1CC"/>
<stop offset="1" stop-color="#F9964E"/>
</linearGradient>
<linearGradient id="paint2_linear_254_176" x1="184.864" y1="126.139" x2="164.118" y2="378.865" gradientUnits="userSpaceOnUse">
<stop offset="0.786458" stop-color="#FFE1CC"/>
<stop offset="1" stop-color="#F9964E"/>
</linearGradient>
<linearGradient id="paint3_linear_254_176" x1="303.198" y1="135.041" x2="284.01" y2="368.781" gradientUnits="userSpaceOnUse">
<stop offset="0.786458" stop-color="#FFE1CC"/>
<stop offset="1" stop-color="#F9964E"/>
</linearGradient>
<linearGradient id="paint4_linear_254_176" x1="303.198" y1="135.041" x2="284.01" y2="368.781" gradientUnits="userSpaceOnUse">
<stop offset="0.786458" stop-color="#FFE1CC"/>
<stop offset="1" stop-color="#F9964E"/>
</linearGradient>
<linearGradient id="paint5_linear_254_176" x1="416.203" y1="145.827" x2="398.79" y2="357.948" gradientUnits="userSpaceOnUse">
<stop offset="0.786458" stop-color="#FFE1CC"/>
<stop offset="1" stop-color="#F9964E"/>
</linearGradient>
<linearGradient id="paint6_linear_254_176" x1="416.203" y1="145.827" x2="398.79" y2="357.948" gradientUnits="userSpaceOnUse">
<stop offset="0.786458" stop-color="#FFE1CC"/>
<stop offset="1" stop-color="#F9964E"/>
</linearGradient>
<linearGradient id="paint7_linear_254_176" x1="536.06" y1="154.373" x2="520.227" y2="347.249" gradientUnits="userSpaceOnUse">
<stop offset="0.786458" stop-color="#FFE1CC"/>
<stop offset="1" stop-color="#F9964E"/>
</linearGradient>
<linearGradient id="paint8_linear_254_176" x1="536.06" y1="154.373" x2="520.227" y2="347.249" gradientUnits="userSpaceOnUse">
<stop offset="0.786458" stop-color="#FFE1CC"/>
<stop offset="1" stop-color="#F9964E"/>
</linearGradient>
</defs>
</svg>
